<svg width="14" height="16" viewBox="0 0 14 16" fill="none" xmlns="http://www.w3.org/2000/svg">
<path fill-rule="evenodd" clip-rule="evenodd" d="M4.2052 0.0243007C3.61518 0.127147 3.05708 0.360768 2.59402 0.698692C2.23971 0.957285 2.119 1.068 1.79489 1.43158C0.897163 2.43866 0.295525 3.87874 0.0674218 5.56649C0.0263213 5.87052 0.0126108 6.18656 0.0141133 6.79464C0.0162106 7.64634 0.0496732 7.97807 0.212479 8.76081C0.312522 9.24175 0.30598 9.23843 0.537025 8.92439C0.927276 8.39387 1.52081 7.89633 2.1006 7.61368L2.41685 7.45952L2.63343 7.03608C2.99651 6.3263 3.45838 5.66788 3.93932 5.17466L4.21384 4.8931L4.23372 4.63796C4.26339 4.25682 4.44398 3.54218 4.61621 3.12452C4.83016 2.60555 5.19509 2.05948 5.57582 1.68849C5.96745 1.30685 6.02076 1.20837 6.02076 0.86663C6.02076 0.5575 5.9385 0.358039 5.75491 0.221942C5.53933 0.0621004 4.64366 -0.0521175 4.2052 0.0243007ZM6.69659 5.1365C6.35244 5.19931 5.8424 5.3884 5.52161 5.57217C4.5541 6.12639 3.6426 7.25997 3.15794 8.51177C3.10225 8.65565 3.05038 8.77332 3.04268 8.77332C2.95785 8.77332 2.50061 8.94476 2.30062 9.05157C0.985812 9.75366 0.097629 11.488 0.00478509 13.5345C-0.045581 14.6447 0.303131 15.4804 0.981023 15.874L1.16884 15.983L6.88159 15.9965C11.0538 16.0064 12.6446 15.996 12.7807 15.9583C13.1664 15.8512 13.5542 15.4647 13.7693 14.9728C13.9485 14.5633 14.0024 14.2041 13.9999 13.4357C13.998 12.8512 13.9861 12.6902 13.9164 12.3119C13.8168 11.7711 13.6378 11.2061 13.4234 10.7555C13.2382 10.366 12.8329 9.78391 12.5739 9.53546C12.3257 9.29733 11.9305 9.02678 11.6961 8.93457C11.4977 8.85652 11.4975 8.85634 11.3673 8.52628C11.1626 8.00727 10.8893 7.51087 10.5361 7.01657C9.86837 6.08194 9.09973 5.50103 8.165 5.22451C7.78796 5.11298 7.06349 5.06959 6.69659 5.1365Z" fill="white"/>
</svg>
