<svg width="16" height="14" viewBox="0 0 16 14" fill="none" xmlns="http://www.w3.org/2000/svg">
<path fill-rule="evenodd" clip-rule="evenodd" d="M7.81196 0.0514134C7.67758 0.142913 0.132908 6.45152 0.0762042 6.51974C-0.102324 6.73458 0.052922 7.06076 0.333686 7.06076C0.394865 7.06076 0.479764 7.03721 0.522291 7.00844C0.56485 6.97966 2.25113 5.57668 4.26955 3.89069C6.28797 2.2047 7.95929 0.81777 7.9836 0.80862C8.01042 0.798518 8.23467 0.965644 8.55399 1.23369C10.2426 2.6512 15.4137 6.9629 15.4788 7.00761C15.7575 7.19905 16.1216 6.88138 15.9603 6.58757C15.9236 6.52075 15.3566 6.02546 14.4235 5.24516L12.9449 4.00859V2.34041C12.9449 0.523681 12.9447 0.520856 12.769 0.407925C12.6893 0.35674 12.5997 0.351797 11.7499 0.351797H10.8182L10.7159 0.452109L10.6136 0.552451L10.6041 1.28881C10.599 1.69383 10.5878 2.0252 10.5794 2.0252C10.571 2.0252 10.0379 1.58425 9.39481 1.04529C8.75176 0.506364 8.19702 0.0504002 8.16207 0.0320388C8.06753 -0.0176105 7.89961 -0.00833778 7.81196 0.0514134ZM12.2565 2.22478C12.2565 2.87495 12.2494 3.40691 12.2408 3.40691C12.2322 3.40691 12.0139 3.23192 11.7558 3.01803L11.2864 2.62916V1.8359V1.04265H11.7714H12.2565V2.22478ZM7.84769 1.97586C7.71254 2.04936 1.62463 7.16635 1.57315 7.24971C1.42094 7.49621 1.65505 7.81096 1.93428 7.73531C1.99433 7.71906 2.14107 7.62283 2.26036 7.52154C2.37968 7.42021 2.48786 7.33725 2.50075 7.33719C2.51365 7.33716 2.52422 8.78927 2.52422 10.5642V13.7912L2.63062 13.8956L2.73702 14H8.00056H13.2641L13.3705 13.8956L13.4769 13.7912V10.5642C13.4769 8.78927 13.4876 7.3371 13.5006 7.3371C13.5136 7.3371 13.6155 7.41515 13.727 7.51055C13.985 7.73134 14.1021 7.7821 14.2457 7.73555C14.4524 7.66865 14.5427 7.41733 14.4233 7.2413C14.3645 7.15453 8.32845 2.08326 8.17268 1.9897C8.0629 1.92375 7.95215 1.91905 7.84769 1.97586ZM10.4128 4.72865L12.7849 6.70765L12.7866 10.0161L12.7884 13.3245H11.4272H10.0659V11.2678V9.21106L9.97461 9.11078L9.88333 9.0105L8.05404 9.00212C6.8909 8.99677 6.19481 9.00488 6.14258 9.02438C6.09739 9.04123 6.03227 9.10028 5.99791 9.15558C5.93714 9.2534 5.93542 9.31141 5.93533 11.2903L5.9352 13.3245H4.57381H3.21239L3.22037 10.0166L3.22832 6.70867L5.60662 4.72023C6.91468 3.6266 7.99746 2.73583 8.01283 2.74074C8.02819 2.74565 9.10816 3.6402 10.4128 4.72865ZM9.37747 11.4976V13.3245H8.00056H6.62365V11.4976V9.67065H8.00056H9.37747V11.4976Z" fill="black"/>
</svg>
