<svg width="39" height="41" viewBox="0 0 39 41" fill="none" xmlns="http://www.w3.org/2000/svg">
<path d="M31.1389 18.279L37.9999 12.6542" stroke="#00529E" stroke-width="2"/>
<path d="M31.1389 21.2136L37.9999 15.5889" stroke="#00529E" stroke-width="2"/>
<path d="M31.1389 24.1483L37.9999 18.5235" stroke="#00529E" stroke-width="2"/>
<path d="M0.999984 24.2127L8.84859 25.0773" stroke="#00529E" stroke-width="2"/>
<path d="M1.73509 27.1474L9.58369 28.012" stroke="#00529E" stroke-width="2"/>
<path d="M2.71507 30.082L10.5637 30.9466" stroke="#00529E" stroke-width="2"/>
<path fill-rule="evenodd" clip-rule="evenodd" d="M37.2819 2.70291L37.476 0.136566L35.6001 1.89863L19.2809 17.2278L2.35044 15.0859L0.94165 14.9077L1.24856 16.2941L2.57807 22.3001L4.70989 22.6769L3.5082 17.2483L18.7157 19.1723L19.2411 23.8921L21.2288 23.6708L20.6716 18.6654L35.0935 5.11844L34.4675 13.3969L36.6251 11.3891L37.2819 2.70291ZM35.7752 22.6275L33.6663 23.9928L33.3598 28.0459L20.8065 38.2544L7.7092 36.2261L6.76795 31.974H4.71953L5.90422 37.3258L6.05197 37.9933L6.72754 38.0979L20.9396 40.2989L21.3787 40.3669L21.7235 40.0865L34.9554 29.3261L35.2892 29.0547L35.3216 28.6257L35.7752 22.6275Z" fill="#00529E"/>
</svg>
