<svg width="11" height="13" viewBox="0 0 11 13" fill="none" xmlns="http://www.w3.org/2000/svg">
<path fill-rule="evenodd" clip-rule="evenodd" d="M5.1577 0.00753367C4.37084 0.108194 3.71189 0.442084 3.16477 1.01736C2.67887 1.52825 2.39872 2.07358 2.25583 2.78666C2.19576 3.08632 2.19576 3.7573 2.25583 4.05697C2.39887 4.77081 2.6798 5.31728 3.16477 5.8251C3.65719 6.34072 4.19534 6.6428 4.88875 6.79285C5.17371 6.85451 5.81898 6.85446 6.11715 6.79273C6.77696 6.65614 7.32364 6.3519 7.81396 5.84837C8.30641 5.34268 8.59969 4.77785 8.74417 4.05697C8.80424 3.75733 8.80424 3.08632 8.74417 2.78666C8.65023 2.31791 8.47609 1.88196 8.22661 1.49093C8.07267 1.24967 7.59501 0.751609 7.36841 0.596046C6.97429 0.325494 6.54938 0.139723 6.13035 0.0548149C5.93331 0.0148761 5.3297 -0.0144682 5.1577 0.00753367ZM6.08756 0.82638C6.57118 0.957375 6.97879 1.19523 7.3108 1.5402C7.64093 1.88326 7.86416 2.29484 8.00015 2.81127C8.07296 3.0878 8.07296 3.75583 8.00015 4.03235C7.86416 4.54879 7.64093 4.96037 7.3108 5.30343C6.98065 5.64647 6.58456 5.87843 6.08756 6.01974C5.82145 6.0954 5.17855 6.0954 4.91244 6.01974C4.41544 5.87843 4.01935 5.64647 3.6892 5.30343C2.74423 4.32148 2.68332 2.76282 3.54824 1.69512C3.92275 1.2328 4.53725 0.873305 5.1088 0.782198C5.34914 0.743885 5.86971 0.767386 6.08756 0.82638ZM4.18615 7.6539C2.81846 7.82608 1.58353 8.63336 0.788459 9.87502C0.32239 10.6029 0.0551015 11.4597 0.00764381 12.378C-0.00685512 12.6587 -0.00389663 12.6918 0.0445391 12.7904C0.0796006 12.8619 0.129405 12.9148 0.193685 12.9489C0.289505 12.9996 0.326816 13 5.5 13C10.6732 13 10.7105 12.9996 10.8063 12.9489C10.8706 12.9148 10.9204 12.8619 10.9555 12.7904C11.0039 12.6918 11.0069 12.6587 10.9924 12.378C10.9276 11.1257 10.4681 10.0277 9.63273 9.12904C8.84106 8.27745 7.81782 7.75781 6.70158 7.64048C6.3306 7.60149 4.52603 7.61111 4.18615 7.6539ZM6.66038 8.40255C8.28218 8.59558 9.64065 9.78193 10.0952 11.402C10.1674 11.6597 10.2433 12.0569 10.2433 12.1776V12.2378H5.5H0.756674V12.1629C0.756674 12.0272 0.85599 11.5499 0.938705 11.2881C1.20526 10.4446 1.7127 9.7175 2.41302 9.17559C2.6618 8.98308 3.21509 8.68921 3.53176 8.58136C3.77299 8.49922 4.06003 8.43408 4.31845 8.40288C4.56769 8.37277 6.40813 8.37252 6.66038 8.40255Z" fill="white"/>
</svg>
